<mxfile host="app.diagrams.net" agent="Mozilla/5.0 (Windows NT 10.0; Win64; x64; rv:136.0) Gecko/20100101 Firefox/136.0" version="26.1.0">
  <diagram name="1 oldal" id="zajAL3XkfXj807ZhjTGs">
    <mxGraphModel dx="1164" dy="741" grid="1" gridSize="10" guides="1" tooltips="1" connect="1" arrows="1" fold="1" page="1" pageScale="1" pageWidth="827" pageHeight="1169" math="0" shadow="0">
      <root>
        <mxCell id="0" />
        <mxCell id="1" parent="0" />
        <mxCell id="A382uCGZibQjypVbqAwv-1" value="Helyszín" style="ellipse;whiteSpace=wrap;html=1;" vertex="1" parent="1">
          <mxGeometry x="50" y="420" width="120" height="60" as="geometry" />
        </mxCell>
        <mxCell id="A382uCGZibQjypVbqAwv-11" style="rounded=0;orthogonalLoop=1;jettySize=auto;html=1;exitX=0.5;exitY=1;exitDx=0;exitDy=0;entryX=0.5;entryY=0;entryDx=0;entryDy=0;endArrow=none;startFill=0;" edge="1" parent="1" source="A382uCGZibQjypVbqAwv-2" target="A382uCGZibQjypVbqAwv-1">
          <mxGeometry relative="1" as="geometry" />
        </mxCell>
        <mxCell id="A382uCGZibQjypVbqAwv-12" style="rounded=0;orthogonalLoop=1;jettySize=auto;html=1;exitX=0.5;exitY=1;exitDx=0;exitDy=0;entryX=0.5;entryY=0;entryDx=0;entryDy=0;endArrow=none;startFill=0;" edge="1" parent="1" source="A382uCGZibQjypVbqAwv-2" target="A382uCGZibQjypVbqAwv-5">
          <mxGeometry relative="1" as="geometry" />
        </mxCell>
        <mxCell id="A382uCGZibQjypVbqAwv-2" value="Tanfolyam" style="rounded=0;whiteSpace=wrap;html=1;" vertex="1" parent="1">
          <mxGeometry x="120" y="320" width="120" height="60" as="geometry" />
        </mxCell>
        <mxCell id="A382uCGZibQjypVbqAwv-8" style="edgeStyle=orthogonalEdgeStyle;rounded=0;orthogonalLoop=1;jettySize=auto;html=1;exitX=0;exitY=0.5;exitDx=0;exitDy=0;entryX=1;entryY=0.5;entryDx=0;entryDy=0;" edge="1" parent="1" source="A382uCGZibQjypVbqAwv-3" target="A382uCGZibQjypVbqAwv-2">
          <mxGeometry relative="1" as="geometry" />
        </mxCell>
        <mxCell id="A382uCGZibQjypVbqAwv-9" style="edgeStyle=orthogonalEdgeStyle;rounded=0;orthogonalLoop=1;jettySize=auto;html=1;exitX=1;exitY=0.5;exitDx=0;exitDy=0;entryX=0;entryY=0.5;entryDx=0;entryDy=0;" edge="1" parent="1" source="A382uCGZibQjypVbqAwv-3" target="A382uCGZibQjypVbqAwv-4">
          <mxGeometry relative="1" as="geometry" />
        </mxCell>
        <mxCell id="A382uCGZibQjypVbqAwv-10" style="edgeStyle=orthogonalEdgeStyle;rounded=0;orthogonalLoop=1;jettySize=auto;html=1;exitX=0;exitY=0.5;exitDx=0;exitDy=0;" edge="1" parent="1" source="A382uCGZibQjypVbqAwv-3">
          <mxGeometry relative="1" as="geometry">
            <mxPoint x="250" y="350" as="targetPoint" />
          </mxGeometry>
        </mxCell>
        <mxCell id="A382uCGZibQjypVbqAwv-3" value="Részvétel" style="rhombus;whiteSpace=wrap;html=1;" vertex="1" parent="1">
          <mxGeometry x="320" y="310" width="80" height="80" as="geometry" />
        </mxCell>
        <mxCell id="A382uCGZibQjypVbqAwv-13" style="rounded=0;orthogonalLoop=1;jettySize=auto;html=1;exitX=0.5;exitY=1;exitDx=0;exitDy=0;entryX=0.5;entryY=0;entryDx=0;entryDy=0;endArrow=none;startFill=0;" edge="1" parent="1" source="A382uCGZibQjypVbqAwv-4" target="A382uCGZibQjypVbqAwv-6">
          <mxGeometry relative="1" as="geometry" />
        </mxCell>
        <mxCell id="A382uCGZibQjypVbqAwv-14" style="rounded=0;orthogonalLoop=1;jettySize=auto;html=1;exitX=0.5;exitY=1;exitDx=0;exitDy=0;entryX=0.5;entryY=0;entryDx=0;entryDy=0;endArrow=none;startFill=0;" edge="1" parent="1" source="A382uCGZibQjypVbqAwv-4" target="A382uCGZibQjypVbqAwv-7">
          <mxGeometry relative="1" as="geometry" />
        </mxCell>
        <mxCell id="A382uCGZibQjypVbqAwv-4" value="Résztvevő" style="rounded=0;whiteSpace=wrap;html=1;" vertex="1" parent="1">
          <mxGeometry x="480" y="320" width="120" height="60" as="geometry" />
        </mxCell>
        <mxCell id="A382uCGZibQjypVbqAwv-5" value="Téma" style="ellipse;whiteSpace=wrap;html=1;" vertex="1" parent="1">
          <mxGeometry x="190" y="420" width="120" height="60" as="geometry" />
        </mxCell>
        <mxCell id="A382uCGZibQjypVbqAwv-6" value="Név" style="ellipse;whiteSpace=wrap;html=1;" vertex="1" parent="1">
          <mxGeometry x="410" y="420" width="120" height="60" as="geometry" />
        </mxCell>
        <mxCell id="A382uCGZibQjypVbqAwv-7" value="Ülőhely" style="ellipse;whiteSpace=wrap;html=1;" vertex="1" parent="1">
          <mxGeometry x="550" y="420" width="120" height="60" as="geometry" />
        </mxCell>
      </root>
    </mxGraphModel>
  </diagram>
</mxfile>
